<svg width="75" height="25" viewBox="0 0 75 25" fill="none" xmlns="http://www.w3.org/2000/svg">
<path fill-rule="evenodd" clip-rule="evenodd" d="M46.2748 19.4493C41.9588 22.81 35.7031 24.6031 30.3171 24.6031C22.765 24.6031 15.9662 21.6522 10.8226 16.7443C10.4185 16.3583 10.7806 15.8324 11.2656 16.1329C16.8165 19.5449 23.6799 21.5976 30.7697 21.5976C35.5512 21.5976 40.8111 20.5525 45.6476 18.3837C46.3782 18.0558 46.9892 18.8892 46.2748 19.4493Z" fill="#FF9900"/>
<path fill-rule="evenodd" clip-rule="evenodd" d="M48.0674 17.2808C47.5178 16.5362 44.4207 16.929 43.0305 17.1032C42.607 17.1578 42.5423 16.7685 42.9238 16.4884C45.3905 14.6543 49.4381 15.1837 49.9101 15.7985C50.3821 16.4167 49.7873 20.703 47.4693 22.7488C47.1137 23.0631 46.7742 22.8957 46.9326 22.479C47.4531 21.106 48.6202 18.0287 48.0674 17.2808Z" fill="#FF9900"/>
<path fill-rule="evenodd" clip-rule="evenodd" d="M43.2241 3.81956V2.03247C43.2241 1.76201 43.4185 1.58057 43.6519 1.58057H51.2269C51.47 1.58057 51.6645 1.76544 51.6645 2.03247V3.5628C51.6612 3.81956 51.457 4.15507 51.094 4.68572L47.1687 10.605C48.6273 10.5674 50.167 10.7968 51.4894 11.5842C51.7876 11.7622 51.8687 12.0224 51.8913 12.2791V14.1861C51.8913 14.4463 51.6191 14.7509 51.3338 14.5935C49.0033 13.3028 45.9079 13.1624 43.331 14.6072C43.0685 14.7578 42.793 14.4565 42.793 14.1963V12.3853C42.793 12.0943 42.7962 11.5979 43.0717 11.1562L47.6193 4.26805H43.6616C43.4185 4.26805 43.2241 4.0866 43.2241 3.81956Z" fill="white"/>
<path fill-rule="evenodd" clip-rule="evenodd" d="M15.7258 14.6476H13.4744C13.2591 14.6304 13.0881 14.4549 13.0723 14.2313V1.67427C13.0723 1.42306 13.2654 1.22347 13.5061 1.22347H15.6055C15.824 1.23379 15.9981 1.41618 16.0139 1.6433V3.28476H16.0551C16.6029 1.69836 17.632 0.958496 19.0189 0.958496C20.428 0.958496 21.3083 1.69836 21.9416 3.28476C22.4863 1.69836 23.7244 0.958496 25.0511 0.958496C25.9947 0.958496 27.027 1.38177 27.6572 2.33154C28.3696 3.38799 28.224 4.92278 28.224 6.26829L28.2208 14.1934C28.2208 14.4446 28.0276 14.6476 27.787 14.6476H25.5388C25.3139 14.6304 25.1335 14.4343 25.1335 14.1934V7.5381C25.1335 7.00815 25.1778 5.68673 25.0701 5.18431C24.9023 4.34121 24.3988 4.10377 23.7465 4.10377C23.2019 4.10377 22.6319 4.49951 22.4008 5.13269C22.1696 5.76587 22.1918 6.82577 22.1918 7.5381V14.1934C22.1918 14.4446 21.9986 14.6476 21.758 14.6476H19.5098C19.2818 14.6304 19.1044 14.4343 19.1044 14.1934L19.1013 7.5381C19.1013 6.13753 19.3134 4.07624 17.7144 4.07624C16.0963 4.07624 16.1596 6.08591 16.1596 7.5381V14.1934C16.1596 14.4446 15.9664 14.6476 15.7258 14.6476" fill="white"/>
<path fill-rule="evenodd" clip-rule="evenodd" d="M58.2197 0.958496C61.5918 0.958496 63.417 4.01779 63.417 7.90775C63.417 11.666 61.4 14.6476 58.2197 14.6476C54.9082 14.6476 53.1055 11.5884 53.1055 7.77606C53.1055 3.94012 54.9306 0.958496 58.2197 0.958496ZM58.2388 3.47414C56.5639 3.47414 56.4585 5.8851 56.4585 7.38774C56.4585 8.89375 56.4361 12.1084 58.2197 12.1084C59.9809 12.1084 60.064 9.51506 60.064 7.93476C60.064 6.89474 60.0224 5.65211 59.7252 4.66611C59.4694 3.80843 58.9612 3.47414 58.2388 3.47414Z" fill="white"/>
<path fill-rule="evenodd" clip-rule="evenodd" d="M67.8434 14.6476H65.6381C65.417 14.6304 65.2394 14.4343 65.2394 14.1934L65.2363 1.63297C65.255 1.40241 65.4388 1.22347 65.6631 1.22347H67.7157C67.9088 1.23379 68.0677 1.37833 68.1113 1.57447V3.49467H68.1518C68.7716 1.77751 69.6407 0.958496 71.1701 0.958496C72.1637 0.958496 73.1324 1.35424 73.7554 2.43822C74.3347 3.44305 74.3347 5.13269 74.3347 6.34744V14.2519C74.3098 14.4721 74.126 14.6476 73.908 14.6476H71.6871C71.4846 14.6304 71.3164 14.4653 71.2946 14.2519V7.43142C71.2946 6.05838 71.4379 4.04871 69.9086 4.04871C69.3697 4.04871 68.8744 4.44789 68.6284 5.05354C68.3169 5.82093 68.2764 6.58488 68.2764 7.43142V14.1934C68.2733 14.4446 68.0802 14.6476 67.8434 14.6476" fill="white"/>
<path fill-rule="evenodd" clip-rule="evenodd" d="M37.1597 8.60663C37.1597 9.53991 37.1834 10.3182 36.7086 11.147C36.3254 11.8209 35.715 12.2353 35.0401 12.2353C34.1142 12.2353 33.5716 11.5345 33.5716 10.5001C33.5716 8.45839 35.4131 8.08777 37.1597 8.08777V8.60663ZM39.5914 14.4455C39.432 14.587 39.2013 14.5971 39.0216 14.5028C38.2212 13.8424 38.0754 13.5358 37.6379 12.9058C36.3152 14.2467 35.3758 14.6476 33.6632 14.6476C31.6317 14.6476 30.0547 13.4044 30.0547 10.9146C30.0547 8.97051 31.1128 7.6464 32.6254 6.99951C33.9345 6.42674 35.7624 6.32567 37.1597 6.16732V5.85735C37.1597 5.28795 37.2038 4.6141 36.8647 4.1222C36.573 3.68083 36.01 3.49889 35.5115 3.49889C34.5924 3.49889 33.7751 3.96721 33.575 4.93755C33.5343 5.15318 33.3749 5.36544 33.1544 5.37555L30.8178 5.12622C30.6211 5.08243 30.4006 4.92407 30.4583 4.62421C30.9941 1.80754 33.558 0.958496 35.8506 0.958496C37.0241 0.958496 38.557 1.26847 39.4828 2.1512C40.6563 3.23946 40.5443 4.6916 40.5443 6.27176V10.0049C40.5443 11.1268 41.0124 11.6187 41.4532 12.2252C41.6059 12.4408 41.6398 12.7002 41.4431 12.862C40.9513 13.2696 40.0763 14.0277 39.5947 14.4522L39.5913 14.4455" fill="white"/>
<path fill-rule="evenodd" clip-rule="evenodd" d="M7.0633 8.60663C7.0633 9.53991 7.08578 10.3182 6.63609 11.147C6.27312 11.8209 5.69816 12.2353 5.05574 12.2353C4.17885 12.2353 3.66813 11.5345 3.66813 10.5001C3.66813 8.45839 5.41229 8.08777 7.0633 8.08777V8.60663ZM9.36636 14.4455C9.21539 14.587 8.99697 14.5971 8.82673 14.5028C8.06868 13.8424 7.93377 13.5358 7.5162 12.9058C6.26349 14.2467 5.37696 14.6476 3.75164 14.6476C1.83081 14.6476 0.333984 13.4044 0.333984 10.9146C0.333984 8.97051 1.33937 7.6464 2.76874 6.99951C4.00861 6.42674 5.73992 6.32567 7.0633 6.16732V5.85735C7.0633 5.28795 7.10505 4.6141 6.78706 4.1222C6.50761 3.68083 5.9744 3.49889 5.50544 3.49889C4.63496 3.49889 3.85764 3.96721 3.66813 4.93755C3.62958 5.15318 3.47861 5.36544 3.27304 5.37555L1.0567 5.12622C0.870402 5.08243 0.664828 4.92407 0.716222 4.62421C1.22694 1.80754 3.65206 0.958496 5.82343 0.958496C6.93481 0.958496 8.38667 1.26847 9.26357 2.1512C10.375 3.23946 10.269 4.6916 10.269 6.27176V10.0049C10.269 11.1268 10.7122 11.6187 11.1298 12.2252C11.2775 12.4408 11.3097 12.7002 11.1234 12.862C10.6576 13.2696 9.8289 14.0277 9.37278 14.4522L9.36636 14.4455" fill="white"/>
</svg>
