<svg width="20" height="20" viewBox="0 0 20 20" fill="none" xmlns="http://www.w3.org/2000/svg">
<circle cx="9.99998" cy="9.99998" r="7.99998" fill="url(#paint0_linear_3_37442)"/>
<circle cx="9.99956" cy="10" r="7.06206" fill="url(#paint1_linear_3_37442)"/>
<circle cx="10.0006" cy="10.0001" r="6.28964" fill="url(#paint2_linear_3_37442)"/>
<g filter="url(#filter0_d_3_37442)">
<path d="M12.7379 7.43883C11.9769 6.13747 11.0141 5.4209 10.0269 5.4209C9.03958 5.4209 8.07685 6.13747 7.31583 7.43883C6.70033 8.49091 6.30273 9.81555 6.30273 10.8136C6.30273 12.8902 7.97334 14.5795 10.0269 14.5795C12.0804 14.5795 13.751 12.8902 13.751 10.8136C13.751 9.81555 13.3534 8.49066 12.7379 7.43857V7.43883ZM7.31507 10.8136C7.31507 9.99828 7.66559 8.8515 8.1872 7.95988C8.1872 7.95962 8.1877 7.95911 8.1877 7.95886C8.20896 7.92251 8.26287 7.92942 8.27476 7.96986C8.48305 8.68106 9.16511 9.18369 9.88539 9.71421C10.6026 10.2427 11.3442 10.7891 11.5031 11.4972C11.6281 12.0546 11.5107 12.5969 11.1723 13.0245C11.1708 13.0266 11.1693 13.0284 11.1678 13.0304C10.9119 13.3511 10.5277 13.5402 10.1205 13.5543C10.0894 13.5553 10.058 13.5558 10.0266 13.5558C8.53139 13.5558 7.31482 12.3256 7.31482 10.8136H7.31507ZM12.4008 12.138C12.3745 12.1859 12.3023 12.1641 12.3061 12.1094C12.3233 11.8542 12.3031 11.5916 12.2436 11.3273C12.0217 10.3379 11.1242 9.67685 10.3326 9.0936C9.69532 8.62399 9.09324 8.18048 8.98821 7.69449C8.98745 7.69116 8.98669 7.68784 8.98618 7.68477C8.87837 7.1673 9.1889 6.65802 9.68799 6.4996C9.80238 6.46326 9.91576 6.44458 10.0271 6.44458C10.633 6.44458 11.3037 6.99685 11.8668 7.95988C12.3884 8.8515 12.7389 9.99854 12.7389 10.8136C12.7389 11.2937 12.6162 11.7452 12.401 12.138H12.4008Z" fill="url(#paint3_linear_3_37442)"/>
</g>
<defs>
<filter id="filter0_d_3_37442" x="6.30273" y="5.4209" width="7.44922" height="9.5449" filterUnits="userSpaceOnUse" color-interpolation-filters="sRGB">
<feFlood flood-opacity="0" result="BackgroundImageFix"/>
<feColorMatrix in="SourceAlpha" type="matrix" values="0 0 0 0 0 0 0 0 0 0 0 0 0 0 0 0 0 0 127 0" result="hardAlpha"/>
<feOffset dy="0.386206"/>
<feComposite in2="hardAlpha" operator="out"/>
<feColorMatrix type="matrix" values="0 0 0 0 0.783333 0 0 0 0 0.343338 0 0 0 0 0.0456944 0 0 0 1 0"/>
<feBlend mode="normal" in2="BackgroundImageFix" result="effect1_dropShadow_3_37442"/>
<feBlend mode="normal" in="SourceGraphic" in2="effect1_dropShadow_3_37442" result="shape"/>
</filter>
<linearGradient id="paint0_linear_3_37442" x1="9.99998" y1="2" x2="9.99998" y2="18" gradientUnits="userSpaceOnUse">
<stop stop-color="#FAAD31"/>
<stop offset="1" stop-color="#FF6915"/>
</linearGradient>
<linearGradient id="paint1_linear_3_37442" x1="9.99956" y1="2.93799" x2="9.99956" y2="17.0621" gradientUnits="userSpaceOnUse">
<stop stop-color="#FF6915"/>
<stop offset="1" stop-color="#FAAD31"/>
</linearGradient>
<linearGradient id="paint2_linear_3_37442" x1="10.0006" y1="3.71045" x2="10.0006" y2="16.2897" gradientUnits="userSpaceOnUse">
<stop stop-color="#FAAD31"/>
<stop offset="1" stop-color="#FF6915"/>
</linearGradient>
<linearGradient id="paint3_linear_3_37442" x1="10.0269" y1="5.4209" x2="10.0269" y2="14.5795" gradientUnits="userSpaceOnUse">
<stop stop-color="#F5F5F5"/>
<stop offset="1" stop-color="#FAAD31"/>
</linearGradient>
</defs>
</svg>
