<svg width="16" height="16" viewBox="0 0 16 16" fill="none" xmlns="http://www.w3.org/2000/svg">
<path d="M6.33333 3C5.10611 3 4.11111 3.995 4.11111 5.22222H3.55556C3.24889 5.22222 3 5.47111 3 5.77778V7.44444H13V5.77778C13 5.47111 12.7511 5.22222 12.4444 5.22222H11.8889C11.8889 3.995 10.8939 3 9.66667 3C8.99389 3 8.40778 3.30889 8 3.78111C7.59222 3.30889 7.00611 3 6.33333 3ZM6.33333 4.11111C6.94722 4.11111 7.44444 4.60833 7.44444 5.22222H5.22222C5.22222 4.60833 5.71944 4.11111 6.33333 4.11111ZM9.66667 4.11111C10.2806 4.11111 10.7778 4.60833 10.7778 5.22222H8.55556C8.55556 4.60833 9.05278 4.11111 9.66667 4.11111ZM3.55556 8.55556V10.7778C3.55556 12.005 4.55056 13 5.77778 13H7.44444V8.55556H3.55556ZM8.55556 8.55556V13H10.2222C11.4494 13 12.4444 12.005 12.4444 10.7778V8.55556H8.55556Z" fill="white"/>
</svg>
