<svg width="19" height="18" viewBox="0 0 19 18" fill="none" xmlns="http://www.w3.org/2000/svg">
<path d="M9.33398 0C4.36328 0 0.333984 4.0293 0.333984 9C0.333984 13.9707 4.36328 18 9.33398 18C14.3047 18 18.334 13.9707 18.334 9C18.334 4.0293 14.3047 0 9.33398 0ZM12.934 6.3C13.1644 6.3 13.4047 6.37741 13.5811 6.55291C13.9321 6.90481 13.9321 7.49519 13.5811 7.84709L10.2061 11.1942C9.17018 12.2292 7.58709 12.0744 6.77439 10.8558L5.87439 9.50581C5.59899 9.09271 5.71417 8.51671 6.12817 8.24041C6.54127 7.965 7.11728 8.08019 7.39358 8.49419L8.29358 9.84419C8.47538 10.1169 8.7085 10.1601 8.93979 9.92791L12.2869 6.55291C12.4633 6.37741 12.7036 6.3 12.934 6.3Z" fill="#FAAD31"/>
</svg>
