<svg width="81" height="40" viewBox="0 0 81 40" fill="none" xmlns="http://www.w3.org/2000/svg">
<path d="M50.6249 9C45.7966 9 41.4818 11.4989 41.4818 16.1158C41.4818 21.4105 49.1342 21.7762 49.1342 24.4361C49.1342 25.5561 47.8488 26.5586 45.6535 26.5586C42.5378 26.5586 40.2091 25.1577 40.2091 25.1577L39.2127 29.8167C39.2127 29.8167 41.8953 31 45.4568 31C50.7357 31 54.8895 28.3784 54.8895 23.6826C54.8895 18.0878 47.2052 17.7329 47.2052 15.2641C47.2052 14.3868 48.2604 13.4255 50.4495 13.4255C52.9195 13.4255 54.9346 14.4443 54.9346 14.4443L55.9098 9.94453C55.9098 9.94453 53.7171 9 50.6249 9ZM6.4509 9.33961L6.33398 10.0188C6.33398 10.0188 8.36524 10.39 10.1947 11.1305C12.5503 11.9796 12.7181 12.4739 13.1149 14.0092L17.4379 30.6498H23.233L32.1608 9.33961H26.379L20.6424 23.8285L18.3015 11.547C18.0868 10.1414 16.9994 9.33961 15.6683 9.33961H6.4509ZM34.4858 9.33961L29.9501 30.6498H35.4636L39.9832 9.33961H34.4858ZM65.2361 9.33961C63.9066 9.33961 63.2022 10.0503 62.6853 11.2923L54.6078 30.6498H60.3896L61.5083 27.4235H68.5522L69.2324 30.6498H74.334L69.8834 9.33961H65.2361ZM65.9881 15.097L67.7019 23.0936H63.1105L65.9881 15.097Z" fill="white"/>
</svg>
